<svg width="80" height="80" xmlns="http://www.w3.org/2000/svg">
 <title/>

 <g>
  <title>background</title>
  <rect fill="none" id="canvas_background" height="402" width="582" y="-1" x="-1"/>
 </g>
 <g>
  <title>Layer 1</title>
  <path fill="#f1c40f" id="svg_1" d="m40,5.4c-19.1,0 -34.6,15.5 -34.6,34.6c0,19.099998 15.5,34.599998 34.500001,34.599998s34.599998,-15.5 34.699997,-34.599998c0,0 0,0 0,0c-0.099998,-19.1 -15.5,-34.5 -34.599998,-34.6zm0,66.199998c-17.4,0 -31.6,-14.199997 -31.6,-31.599998c0,-17.4 14.200001,-31.6 31.6,-31.6c17.400002,0 31.599998,14.1 31.599998,31.500002c0,0 0,0 0,0c-0.099998,17.5 -14.199997,31.599998 -31.599998,31.699997z"/>
  <path fill="#f1c40f" id="svg_2" d="m40,14.9l0,3c12.200001,0 22,9.9 22.099998,22.1l3,0c0,-13.799999 -11.299999,-25 -25.099998,-25.1z"/>
  <polygon fill="#f1c40f" id="svg_3" points="41.5,25.5 38.5,25.5 38.5,38.5 25.5,38.5 25.5,41.5 38.5,41.5 38.5,54.5 41.5,54.5 41.5,41.5 54.5,41.5     54.5,38.5 41.5,38.5   "/>
 </g>
</svg>