<svg width="80" height="80" xmlns="http://www.w3.org/2000/svg">
 <title/>

 <g>
  <title>background</title>
  <rect fill="none" id="canvas_background" height="402" width="582" y="-1" x="-1"/>
 </g>
 <g>
  <title>Layer 1</title>
  <path fill="#7b7b7b" id="svg_1" d="m40,5.4c-19.1,0 -34.6,15.5 -34.6,34.6c0,19.099998 15.5,34.599998 34.500001,34.599998s34.599998,-15.5 34.699997,-34.599998c0,0 0,0 0,0c-0.099998,-19.1 -15.5,-34.5 -34.599998,-34.6zm0,66.199998c-17.4,0 -31.6,-14.199997 -31.6,-31.599998c0,-17.4 14.200001,-31.6 31.6,-31.6c17.400002,0 31.599998,14.1 31.599998,31.500002c0,0 0,0 0,0c-0.099998,17.5 -14.199997,31.599998 -31.599998,31.699997z"/>
  <path fill="#7b7b7b" id="svg_2" d="m40,14.9c-13.799999,0 -25.1,11.200001 -25.1,25.1l3,0c0,-12.200001 9.9,-22.1 22.1,-22.1l0,-3z"/>
  <polygon fill="#7b7b7b" id="svg_3" points="49.2,28.7 40,37.9 30.8,28.7 28.7,30.8 37.9,40 28.7,49.2 30.8,51.3 40,42.1 49.2,51.3 51.3,49.2 42.1,40     51.3,30.8   "/>
 </g>
</svg>