<svg width="80" height="80" xmlns="http://www.w3.org/2000/svg">
 <title/>

 <g>
  <title>background</title>
  <rect fill="none" id="canvas_background" height="402" width="582" y="-1" x="-1"/>
 </g>
 <g>
  <title>Layer 1</title>
  <path fill="#7b7b7b" id="svg_1" d="m64.699997,40c0,-0.299999 0,-0.599998 0,-0.900002l10.100006,-3.299999l-4.200005,-12.799999l-10.099998,3.299999c-0.299999,-0.5 -0.700001,-1 -1.099998,-1.5l6.299995,-8.599998l-10.899998,-8.000001l-6.299999,8.599999c-0.599998,-0.199999 -1.200001,-0.4 -1.799999,-0.599998l0,-10.600001l-13.400002,0l0,10.600001c-0.599998,0.199999 -1.200001,0.4 -1.799999,0.599998l-6.299999,-8.599999l-10.900001,7.900001l6.3,8.6c-0.4,0.5 -0.700001,1 -1.1,1.5l-10.1,-3.300001l-4.2,12.9l10.1,3.299999c0,0.300003 0,0.600002 0,0.900002s0,0.599998 0,0.900002l-10.1,3.299999l4.2,12.799999l10.1,-3.299999c0.299999,0.5 0.700001,1 1.1,1.5l-6.3,8.599998l10.900001,7.899998l6.299999,-8.599998c0.599998,0.200001 1.200001,0.400002 1.799999,0.600002l0,10.600002l13.5,0l0,-10.500004c0.600002,-0.200001 1.200001,-0.399998 1.799999,-0.599998l6.200001,8.600002l10.899998,-7.900002l-6.299995,-8.600002c0.399998,-0.5 0.699997,-1 1.099998,-1.5l10.099998,3.200001l4.200005,-12.799999l-10.100006,-3.299999c0,-0.300003 0,-0.600002 0,-0.900002zm6.300003,6.099998l-2.300003,7.100002l-9.499996,-3.100002l-0.600002,1c-0.599998,1.100002 -1.399998,2.100002 -2.199997,3l-0.800003,0.900002l5.900002,8.099998l-6.099998,4.400002l-5.900002,-8.099998l-1,0.599998c-1.099998,0.5 -2.299999,0.900002 -3.5,1.099998l-1.200001,0.300003l0,10l-7.5,0l0,-10l-1.200001,-0.300003c-1.199997,-0.299999 -2.399998,-0.699997 -3.499998,-1.099998l-1.1,-0.5l-5.9,8.099998l-6.1,-4.399998l5.9,-8.100002l-0.799999,-0.899998c-0.800001,-0.900002 -1.5,-1.900002 -2.200001,-3l-0.6,-1l-9.499999,3.099998l-2.3,-7.200001l9.5,-3.099998l-0.1,-1.200001c0,-0.599998 -0.1,-1.200001 -0.1,-1.899998s0,-1.300003 0.1,-1.900002l0.1,-1.200001l-9.5,-2.899998l2.3,-7.100002l9.499999,3.1l0.6,-1c0.6,-1.1 1.4,-2.1 2.200001,-3l0.799999,-0.9l-5.9,-8.1l6.1,-4.4l5.9,8.1l1.1,-0.5c1.1,-0.5 2.300001,-0.9 3.6,-1.1l1.200001,-0.299999l0,-10.000001l7.5,0l0,10.000001l1.199997,0.299999c1.200001,0.299999 2.400002,0.700001 3.5,1.1l1.100002,0.5l5.899998,-8.1l6.100002,4.4l-5.900002,8.1l0.799999,0.9c0.800003,0.9 1.5,1.9 2.200001,3l0.600002,1l9.5,-3.1l2.299995,7.100002l-9.499996,3.099998l0.099998,1.200001c0,0.599998 0.100002,1.200001 0.100002,1.899998s0,1.300003 -0.100002,1.900002l-0.299999,1l9.5,3.099998z"/>
  <path fill="#7b7b7b" id="svg_2" d="m40,26.799999c-7.299999,0 -13.200001,5.900002 -13.200001,13.200001s5.900002,13.200001 13.200001,13.200001c7.299999,0 13.200001,-5.900002 13.200001,-13.200001c0,-7.299999 -5.900002,-13.200001 -13.200001,-13.200001zm0,23.400002c-5.599998,0 -10.200001,-4.600002 -10.200001,-10.200001s4.600002,-10.200001 10.200001,-10.200001c5.599998,0 10.200001,4.600002 10.200001,10.200001c0,5.599998 -4.600002,10.200001 -10.200001,10.200001z"/>
 </g>
</svg>