<svg width="512" height="512" xmlns="http://www.w3.org/2000/svg">

 <g>
  <title>background</title>
  <rect fill="none" id="canvas_background" height="402" width="582" y="-1" x="-1"/>
 </g>
 <g>
  <title>Layer 1</title>
  <circle fill="#f1c40f" r="56.8" id="XMLID_6_" cy="230.6" cx="256"/>
  <path fill="#f1c40f" id="XMLID_5_" d="m290.9,297.2l-34.9,51.4l-34.9,-51.4c-50.3,7.9 -88.8,51.5 -88.8,104.1l247.5,0c0,-52.5 -38.5,-96.1 -88.9,-104.1z"/>
  <circle fill="#f1c40f" r="56.8" id="XMLID_4_" cy="167.4" cx="382.2"/>
  <circle fill="#f1c40f" r="56.8" id="XMLID_3_" cy="167.4" cx="129.8"/>
  <path fill="#f1c40f" id="XMLID_2_" d="m291.2,287.3l1.3,0.2c26.8,4.2 51.4,17.9 69.3,38.6c3.3,3.8 6.3,7.8 9.1,12l135.1,0c0,-52.6 -38.5,-96.2 -88.8,-104.1l-34.9,51.4l-35,-51.4c-8.9,1.4 -17.5,3.9 -25.5,7.5c-3.2,19.3 -14.7,35.8 -30.6,45.8z"/>
  <path fill="#f1c40f" id="XMLID_1_" d="m150.3,326.1c17.8,-20.7 42.4,-34.4 69.3,-38.6l1.3,-0.2c-16,-10 -27.5,-26.5 -30.6,-45.8c-8,-3.5 -16.6,-6 -25.5,-7.5l-34.9,51.4l-35.1,-51.4c-50.3,7.9 -88.8,51.5 -88.8,104.1l135.2,0c2.8,-4.2 5.8,-8.2 9.1,-12z"/>
  <line stroke="null" stroke-linecap="null" stroke-linejoin="null" id="svg_7" y2="257.723301" x2="250.840477" y1="198.078876" x1="250.840477" stroke-opacity="null" stroke-width="null" fill="none"/>
 </g>
</svg>