<svg width="512" height="512" xmlns="http://www.w3.org/2000/svg">

 <g>
  <title>background</title>
  <rect fill="none" id="canvas_background" height="402" width="582" y="-1" x="-1"/>
 </g>
 <g>
  <title>Layer 1</title>
  <circle fill="#7b7b7b" r="56.8" id="XMLID_6_" cy="230.6" cx="256"/>
  <path fill="#7b7b7b" id="XMLID_5_" d="m290.899994,297.200012l-34.899994,51.399994l-34.899994,-51.399994c-50.300003,7.899994 -88.800003,51.5 -88.800003,104.099976l247.499985,0c0,-52.5 -38.5,-96.099976 -88.899994,-104.099976z"/>
  <circle fill="#7b7b7b" r="56.8" id="XMLID_4_" cy="167.4" cx="382.2"/>
  <circle fill="#7b7b7b" r="56.8" id="XMLID_3_" cy="167.4" cx="129.8"/>
  <path fill="#7b7b7b" id="XMLID_2_" d="m291.200012,287.299988l1.299988,0.200012c26.800018,4.199982 51.400024,17.899994 69.300018,38.599976c3.299988,3.800018 6.299988,7.800018 9.100006,12l135.099976,0c0,-52.599976 -38.5,-96.199982 -88.799988,-104.099991l-34.900024,51.400009l-35,-51.399994c-8.899994,1.399994 -17.5,3.899994 -25.5,7.5c-3.199982,19.299988 -14.699982,35.799988 -30.599976,45.799988z"/>
  <path fill="#7b7b7b" id="XMLID_1_" d="m150.300003,326.100006c17.800003,-20.699982 42.399994,-34.399994 69.300003,-38.600006l1.300003,-0.199982c-16,-10 -27.5,-26.5 -30.600006,-45.800003c-8,-3.5 -16.599991,-6 -25.5,-7.5l-34.900009,51.400009l-35.099991,-51.400024c-50.300003,7.899994 -88.800003,51.5 -88.800003,104.100006l135.199997,0c2.800003,-4.200012 5.800003,-8.200012 9.100006,-12z"/>
 </g>
</svg>